<?xml version="1.0" encoding="utf-8"?>
<!-- Generator: Adobe Illustrator 16.0.0, SVG Export Plug-In . SVG Version: 6.00 Build 0)  -->
<!DOCTYPE svg PUBLIC "-//W3C//DTD SVG 1.1//EN" "http://www.w3.org/Graphics/SVG/1.1/DTD/svg11.dtd">
<svg version="1.1" id="Layer_1" xmlns="http://www.w3.org/2000/svg" xmlns:xlink="http://www.w3.org/1999/xlink" x="0px" y="0px"
	 width="25px" height="25px" viewBox="0 0 25 25" enable-background="new 0 0 25 25" xml:space="preserve">
<g>
	<path fill="#F38181" d="M12.5,6.875c-1.429,0-2.591,1.162-2.591,2.591c0,1.429,1.163,2.591,2.591,2.591s2.592-1.162,2.592-2.591
		C15.092,8.037,13.929,6.875,12.5,6.875z"/>
	<path fill="#F38181" d="M12.5,0C7.21,0,2.906,4.304,2.906,9.594c0,2.241,0.773,4.306,2.066,5.941L12.5,25l7.528-9.465
		c1.293-1.635,2.065-3.7,2.065-5.941C22.094,4.304,17.79,0,12.5,0z M12.5,13.785c-2.381,0-4.318-1.938-4.318-4.319
		c0-2.381,1.937-4.318,4.318-4.318c2.381,0,4.318,1.938,4.318,4.318C16.818,11.847,14.881,13.785,12.5,13.785z"/>
</g>
</svg>
