<?xml version="1.0" encoding="utf-8"?>
<!-- Generator: Adobe Illustrator 16.0.0, SVG Export Plug-In . SVG Version: 6.00 Build 0)  -->
<!DOCTYPE svg PUBLIC "-//W3C//DTD SVG 1.1//EN" "http://www.w3.org/Graphics/SVG/1.1/DTD/svg11.dtd">
<svg version="1.1" id="Laag_1" xmlns="http://www.w3.org/2000/svg" xmlns:xlink="http://www.w3.org/1999/xlink" x="0px" y="0px"
	 width="25px" height="25px" viewBox="0 0 25 25" enable-background="new 0 0 25 25" xml:space="preserve">
<g>
	<g>
		<path fill="#FFE084" d="M20.669,12.427c0,0.552,0.444,0.996,0.996,0.996h1.802c0.552,0,0.996-0.444,0.996-0.996
			s-0.444-0.996-0.996-0.996h-1.802C21.113,11.431,20.669,11.875,20.669,12.427z"/>
		<path fill="#FFE084" d="M1.665,13.423h1.802c0.552,0,0.996-0.444,0.996-0.996s-0.444-0.996-0.996-0.996H1.665
			c-0.552,0-0.996,0.444-0.996,0.996C0.669,12.974,1.113,13.423,1.665,13.423z"/>
		<path fill="#FFE084" d="M12.563,4.326c0.552,0,0.996-0.444,0.996-0.996V1.533c0-0.552-0.444-0.996-0.996-0.996
			s-0.996,0.444-0.996,0.996V3.33C11.567,3.882,12.017,4.326,12.563,4.326z"/>
		<path fill="#FFE084" d="M5.425,6.699c0.391,0.391,1.021,0.391,1.411,0s0.391-1.021,0-1.411l-1.274-1.27
			c-0.391-0.391-1.021-0.391-1.411,0s-0.391,1.021,0,1.411L5.425,6.699z"/>
		<path fill="#FFE084" d="M19.707,6.699l1.274-1.27c0.391-0.391,0.391-1.021,0-1.411s-1.021-0.391-1.411,0l-1.274,1.27
			c-0.391,0.391-0.391,1.021,0,1.411S19.316,7.09,19.707,6.699z"/>
		<path fill="#FFE084" d="M23.335,15.015h-4.424c0.332-0.815,0.503-1.694,0.503-2.588c0-3.794-3.071-6.885-6.846-6.885
			s-6.846,3.086-6.846,6.885c0,0.894,0.171,1.772,0.503,2.588H1.538c-0.552,0-0.996,0.444-0.996,0.996s0.444,0.996,0.996,0.996
			h10.034v6.46c0,0.552,0.444,0.996,0.996,0.996s0.996-0.444,0.996-0.996v-6.46h9.775c0.552,0,0.996-0.444,0.996-0.996
			S23.887,15.015,23.335,15.015z M16.685,15.015h-3.12V12.69l0.776,0.781c0.386,0.391,1.021,0.391,1.411,0.005
			s0.391-1.016,0.005-1.406l-2.48-2.5c-0.186-0.19-0.449-0.283-0.708-0.283S12.046,9.38,11.86,9.57l-2.485,2.5
			c-0.386,0.391-0.386,1.021,0.005,1.406s1.021,0.386,1.411-0.005l0.776-0.781v2.324h-3.12c-0.483-0.776-0.737-1.67-0.737-2.588
			c0-2.695,2.178-4.893,4.854-4.893s4.854,2.192,4.854,4.893C17.417,13.35,17.163,14.238,16.685,15.015z"/>
	</g>
</g>
</svg>
