<?xml version="1.0" encoding="utf-8"?>
<!-- Generator: Adobe Illustrator 16.0.0, SVG Export Plug-In . SVG Version: 6.00 Build 0)  -->
<!DOCTYPE svg PUBLIC "-//W3C//DTD SVG 1.1//EN" "http://www.w3.org/Graphics/SVG/1.1/DTD/svg11.dtd">
<svg version="1.1" id="Laag_1" xmlns="http://www.w3.org/2000/svg" xmlns:xlink="http://www.w3.org/1999/xlink" x="0px" y="0px"
	 width="25px" height="25px" viewBox="0 0 25 25" enable-background="new 0 0 25 25" xml:space="preserve">
<g>
	<g>
		<path fill="#EA5959" d="M20.669,12.476c0,0.552,0.444,1.001,0.996,1.001h1.802c0.552,0,0.996-0.449,0.996-1.001
			s-0.444-1.001-0.996-1.001h-1.802C21.113,11.475,20.669,11.924,20.669,12.476z"/>
		<path fill="#EA5959" d="M1.665,13.477h1.802c0.552,0,0.996-0.449,0.996-1.001s-0.444-1.001-0.996-1.001H1.665
			c-0.552,0-0.996,0.449-0.996,1.001S1.113,13.477,1.665,13.477z"/>
		<path fill="#EA5959" d="M12.563,4.341c0.552,0,0.996-0.449,0.996-1.001V1.533c0-0.552-0.444-1.001-0.996-1.001
			s-0.996,0.449-0.996,1.001V3.34C11.567,3.896,12.017,4.341,12.563,4.341z"/>
		<path fill="#EA5959" d="M5.425,6.724c0.391,0.391,1.021,0.391,1.411,0s0.391-1.025,0-1.416L5.562,4.033
			c-0.391-0.391-1.021-0.391-1.411,0s-0.391,1.025,0,1.416L5.425,6.724z"/>
		<path fill="#EA5959" d="M19.707,6.724l1.274-1.274c0.391-0.391,0.391-1.025,0-1.416s-1.021-0.391-1.411,0l-1.274,1.274
			c-0.391,0.391-0.391,1.025,0,1.416S19.316,7.114,19.707,6.724z"/>
		<path fill="#EA5959" d="M23.335,15.327h-4.536c0.4-0.894,0.61-1.86,0.61-2.856c0-3.809-3.071-6.914-6.846-6.914
			s-6.846,3.101-6.846,6.914c0,0.991,0.21,1.963,0.61,2.856H1.533c-0.552,0-0.996,0.449-0.996,1.001s0.444,1.001,0.996,1.001h10.034
			v3.706l-0.776-0.786c-0.386-0.391-1.021-0.396-1.411-0.005s-0.391,1.021-0.005,1.416l2.48,2.51
			c0.186,0.19,0.439,0.298,0.708,0.298c0.264,0,0.522-0.107,0.708-0.298l2.48-2.51c0.386-0.391,0.386-1.025-0.005-1.416
			s-1.021-0.386-1.411,0.005l-0.776,0.786v-3.706h9.771c0.552,0,0.996-0.449,0.996-1.001C24.331,15.776,23.887,15.327,23.335,15.327
			z M16.587,15.22c-0.024,0.034-0.044,0.068-0.063,0.107H13.56v-5.015c0-0.552-0.444-1.001-0.996-1.001s-0.996,0.449-0.996,1.001
			v5.015H8.579c-0.024-0.073-0.059-0.142-0.098-0.205c-0.503-0.791-0.767-1.704-0.767-2.651c0-2.71,2.178-4.912,4.854-4.912
			s4.854,2.202,4.854,4.912C17.417,13.457,17.129,14.409,16.587,15.22z"/>
	</g>
</g>
</svg>
