<?xml version="1.0" encoding="utf-8"?>
<!-- Generator: Adobe Illustrator 16.0.0, SVG Export Plug-In . SVG Version: 6.00 Build 0)  -->
<!DOCTYPE svg PUBLIC "-//W3C//DTD SVG 1.1//EN" "http://www.w3.org/Graphics/SVG/1.1/DTD/svg11.dtd">
<svg version="1.1" id="Capa_1" xmlns="http://www.w3.org/2000/svg" xmlns:xlink="http://www.w3.org/1999/xlink" x="0px" y="0px"
	 width="45.66px" height="45.66px" viewBox="0 0 45.66 45.66" enable-background="new 0 0 45.66 45.66" xml:space="preserve">
<g>
	<g>
		<path fill="#F98B60" d="M30.619,27.309V7.781C30.619,3.49,27.125,0,22.833,0c-4.29,0-7.785,3.491-7.785,7.78v19.528
			c-1.902,1.949-3.05,4.604-3.05,7.521c0,5.973,4.857,10.828,10.829,10.828c5.969,0,10.834-4.855,10.834-10.828
			C33.662,31.912,32.52,29.257,30.619,27.309z M22.825,42.66c-4.316,0-7.824-3.512-7.824-7.828c0-2.526,1.174-4.778,3.077-6.211
			V16.237h3.372c0.552,0,1-0.47,1-1.022c0-0.553-0.448-1.021-1-1.021h-3.372v-2.466h3.372c0.552,0,1-0.434,1-0.986
			c0-0.552-0.448-0.986-1-0.986h-3.372V7.78c0-2.636,2.119-4.78,4.754-4.78c2.636,0,4.755,2.144,4.755,4.781v20.871
			c1.904,1.434,3.047,3.672,3.047,6.18C30.634,39.148,27.141,42.66,22.825,42.66z"/>
		<path fill="#F98B60" d="M25.333,30.462V18.632h-5.001v11.831c-1.549,0.875-2.537,2.502-2.537,4.369
			c0,2.789,2.251,5.047,5.038,5.047c2.788,0,5.034-2.258,5.034-5.047C27.867,32.966,26.884,31.337,25.333,30.462z"/>
	</g>
</g>
</svg>
