<?xml version="1.0" encoding="utf-8"?>
<!-- Generator: Adobe Illustrator 16.0.0, SVG Export Plug-In . SVG Version: 6.00 Build 0)  -->
<!DOCTYPE svg PUBLIC "-//W3C//DTD SVG 1.1//EN" "http://www.w3.org/Graphics/SVG/1.1/DTD/svg11.dtd">
<svg version="1.1" id="Laag_1" xmlns="http://www.w3.org/2000/svg" xmlns:xlink="http://www.w3.org/1999/xlink" x="0px" y="0px"
	 width="25px" height="25px" viewBox="0 0 25 25" enable-background="new 0 0 25 25" xml:space="preserve">
<g>
	<g>
		<path fill="#95E1D3" d="M1.533,9.434h14.98c2.617,0,4.741-1.997,4.741-4.448s-2.124-4.448-4.741-4.448s-4.741,1.997-4.741,4.448
			c0,0.552,0.444,0.996,0.996,0.996s0.996-0.444,0.996-0.996c0-1.353,1.235-2.456,2.749-2.456s2.749,1.099,2.749,2.456
			c0,1.353-1.235,2.456-2.749,2.456H1.533c-0.552,0-0.996,0.444-0.996,0.996S0.981,9.434,1.533,9.434z"/>
		<path fill="#95E1D3" d="M16.514,15.566H1.533c-0.552,0-0.996,0.444-0.996,0.996s0.444,0.996,0.996,0.996h14.98
			c1.514,0,2.749,1.104,2.749,2.456s-1.235,2.456-2.749,2.456c-0.552,0-0.996,0.444-0.996,0.996s0.444,0.996,0.996,0.996
			c2.617,0,4.741-1.997,4.741-4.448C21.26,17.563,19.131,15.566,16.514,15.566z"/>
		<path fill="#95E1D3" d="M23.467,8.657c-0.552,0-0.996,0.444-0.996,0.996c0,1.113-1.152,2.017-2.568,2.017H1.533
			c-0.552,0-0.996,0.444-0.996,0.996s0.444,0.996,0.996,0.996h18.369c2.515,0,4.561-1.797,4.561-4.009
			C24.463,9.102,24.019,8.657,23.467,8.657z"/>
	</g>
</g>
</svg>
